<svg width="20" height="28" viewBox="0 0 20 28" fill="none" xmlns="http://www.w3.org/2000/svg">
<path d="M12 1.65698V9.55497H18" fill="black" fill-opacity="0.3"/>
<path d="M12 1.65698V9.55497H18" stroke="black" stroke-opacity="0.8" stroke-width="2" stroke-linecap="round" stroke-linejoin="round"/>
<path d="M5.66667 17.8291C5.48986 17.8291 5.32029 17.7498 5.19526 17.6088C5.07024 17.4677 5 17.2764 5 17.0769C5 16.8774 5.07024 16.6861 5.19526 16.545C5.32029 16.404 5.48986 16.3247 5.66667 16.3247H15C15.1768 16.3247 15.3464 16.404 15.4714 16.545C15.5964 16.6861 15.6667 16.8774 15.6667 17.0769C15.6667 17.2764 15.5964 17.4677 15.4714 17.6088C15.3464 17.7498 15.1768 17.8291 15 17.8291H5.66667ZM5.66667 21.59C5.48986 21.59 5.32029 21.5108 5.19526 21.3697C5.07024 21.2287 5 21.0373 5 20.8378C5 20.6384 5.07024 20.447 5.19526 20.306C5.32029 20.1649 5.48986 20.0857 5.66667 20.0857H15C15.1768 20.0857 15.3464 20.1649 15.4714 20.306C15.5964 20.447 15.6667 20.6384 15.6667 20.8378C15.6667 21.0373 15.5964 21.2287 15.4714 21.3697C15.3464 21.5108 15.1768 21.59 15 21.59H5.66667Z" fill="black" fill-opacity="0.8" stroke="black" stroke-opacity="0.8" stroke-width="0.5"/>
<path fill-rule="evenodd" clip-rule="evenodd" d="M11.9133 0.528565H3C2.46957 0.528565 1.96086 0.76631 1.58579 1.1895C1.21071 1.61269 1 2.18665 1 2.78513V25.3508C1 25.9493 1.21071 26.5233 1.58579 26.9465C1.96086 27.3696 2.46957 27.6074 3 27.6074H17.6667C18.1971 27.6074 18.7058 27.3696 19.0809 26.9465C19.456 26.5233 19.6667 25.9493 19.6667 25.3508V9.85872C19.6665 9.29379 19.4786 8.74945 19.14 8.33328L13.388 1.25969C13.2005 1.02914 12.9727 0.845087 12.7188 0.719221C12.4649 0.593356 12.1906 0.52843 11.9133 0.528565V0.528565ZM2.33333 2.78513C2.33333 2.58564 2.40357 2.39432 2.5286 2.25326C2.65362 2.11219 2.82319 2.03294 3 2.03294H11.9133C12.0058 2.03283 12.0974 2.05444 12.1821 2.0964C12.2668 2.13835 12.3428 2.19974 12.4053 2.27665L18.1573 9.35024C18.2704 9.48889 18.3332 9.67035 18.3333 9.85872V25.3508C18.3333 25.5503 18.2631 25.7416 18.1381 25.8827C18.013 26.0238 17.8435 26.103 17.6667 26.103H3C2.82319 26.103 2.65362 26.0238 2.5286 25.8827C2.40357 25.7416 2.33333 25.5503 2.33333 25.3508V2.78513V2.78513Z" fill="black" fill-opacity="0.8" stroke="black" stroke-opacity="0.8" stroke-width="0.5"/>
<path d="M7.84543 8.25036C8.03583 8.25694 8.22547 8.22031 8.40309 8.14264C8.58071 8.06497 8.74269 7.94785 8.87944 7.79821C9.01618 7.64858 9.1249 7.46948 9.19914 7.27155C9.27339 7.07362 9.31164 6.86087 9.31164 6.64594C9.31164 6.43101 9.27339 6.21827 9.19914 6.02034C9.1249 5.8224 9.01618 5.64331 8.87944 5.49367C8.74269 5.34404 8.58071 5.22692 8.40309 5.14925C8.22547 5.07158 8.03583 5.03494 7.84543 5.04152C7.47583 5.05429 7.12515 5.22893 6.86772 5.52842C6.61028 5.82792 6.46631 6.22873 6.46631 6.64594C6.46631 7.06315 6.61028 7.46397 6.86772 7.76347C7.12515 8.06296 7.47583 8.23759 7.84543 8.25036Z" fill="black" fill-opacity="0.8"/>
<path fill-rule="evenodd" clip-rule="evenodd" d="M10.688 11.7272C10.688 10.0212 9.41467 8.78613 7.844 8.78613C6.27333 8.78613 5 10.0197 5 11.7272V12.5305C5.00035 12.6723 5.05052 12.8081 5.1395 12.9083C5.22848 13.0084 5.34901 13.0646 5.47467 13.0646H10.2147C10.3401 13.0642 10.4603 13.0078 10.549 12.9077C10.6377 12.8077 10.6876 12.6721 10.688 12.5305V11.7272Z" fill="black" fill-opacity="0.8"/>
</svg>
